<?xml version="1.0" encoding="utf-8"?>
<!-- Generator: Adobe Illustrator 15.1.0, SVG Export Plug-In . SVG Version: 6.00 Build 0)  -->
<!DOCTYPE svg PUBLIC "-//W3C//DTD SVG 1.1//EN" "http://www.w3.org/Graphics/SVG/1.1/DTD/svg11.dtd">
<svg version="1.1" id="レイヤー_1" xmlns="http://www.w3.org/2000/svg" xmlns:xlink="http://www.w3.org/1999/xlink" x="0px"
	 y="0px" width="16px" height="19px" viewBox="4 2 16 19" enable-background="new 4 2 16 19" xml:space="preserve">
<path fill="none" d="M0,0h24v24H0V0z"/>
<path fill="#707070" d="M12,2C8,2,4,2.5,4,6v9.5C4,17.43,5.57,19,7.5,19L6,20.5V21h2.23l2-2H14l2,2h2v-0.5L16.5,19
	c1.93,0,3.5-1.57,3.5-3.5V6C20,2.5,16.42,2,12,2z M7.5,17C6.67,17,6,16.33,6,15.5S6.67,14,7.5,14S9,14.67,9,15.5S8.33,17,7.5,17z
	 M11,10H6V6h5V10z M13,10V6h5v4H13z M16.5,17c-0.83,0-1.5-0.67-1.5-1.5s0.67-1.5,1.5-1.5s1.5,0.67,1.5,1.5S17.33,17,16.5,17z"/>
</svg>
