<svg id="icon-teeth-3" xmlns="http://www.w3.org/2000/svg" width="58.284" height="41.324" viewBox="0 0 58.284 41.324">
  <path id="パス_6" data-name="パス 6" d="M61.853,15.082c-2.7-1.165-5.6.038-8.153,1.1a11.2,11.2,0,0,1-4.185.59,11.2,11.2,0,0,1-4.185-.59c-2.553-1.062-5.448-2.266-8.153-1.1-2.01.866-3.6,2.9-4.861,6.217-1.182,3.112-.461,6.668.494,10.048l.112.4c5.183,18.414,7.97,19.124,9.817,19.124h.044c2.5-.051,3.353-2.155,4.106-4.929C47.469,43.8,48.128,43.8,49.3,43.8h.432c1.171,0,1.83,0,2.411,2.14.754,2.774,1.608,4.878,4.107,4.929h.044c1.847,0,4.634-.711,9.817-19.123l.112-.4c.955-3.38,1.676-6.937.494-10.048C65.453,17.983,63.863,15.949,61.853,15.082Zm2.855,15.838-.112.4C59.325,50.04,56.765,49.3,56.287,49.3H56.28c-1.323-.027-2.013-.835-2.622-3.076-.765-2.815-1.555-3.993-3.928-3.993H49.3c-2.373,0-3.163,1.178-3.928,3.993-.609,2.241-1.3,3.049-2.622,3.076h-.007c-.478,0-3.039.743-8.309-17.978l-.112-.4c-.882-3.12-1.557-6.378-.537-9.062,1.1-2.9,2.414-4.643,4.013-5.332,2.093-.9,4.551.121,6.927,1.109a12.737,12.737,0,0,0,4.762.711h.055a12.729,12.729,0,0,0,4.762-.711c2.377-.989,4.835-2.011,6.927-1.109,1.6.689,2.912,2.433,4.013,5.332C66.265,24.543,65.589,27.8,64.707,30.921Z" transform="translate(-20.713 -9.543)" fill="#707070"/>
  <path id="パス_7" data-name="パス 7" d="M133.4,8.261C126.875,7.374,126.7,7.2,125.816.68a.786.786,0,0,0-1.558,0c-.887,6.522-1.059,6.694-7.581,7.581a.786.786,0,0,0,0,1.558c6.522.887,6.694,1.059,7.581,7.581a.786.786,0,0,0,1.558,0c.887-6.522,1.059-6.694,7.581-7.581a.786.786,0,0,0,0-1.558Zm-8.36,5.476a6.33,6.33,0,0,0-4.7-4.7,6.331,6.331,0,0,0,4.7-4.7,6.33,6.33,0,0,0,4.7,4.7A6.329,6.329,0,0,0,125.037,13.738Z" transform="translate(-75.793)" fill="#707070"/>
  <path id="パス_8" data-name="パス 8" d="M17.4,53.343c-6.522-.887-6.694-1.059-7.581-7.581a.786.786,0,0,0-1.558,0C7.374,52.284,7.2,52.457.68,53.343a.786.786,0,0,0,0,1.558c6.522.887,6.694,1.059,7.581,7.581a.786.786,0,0,0,1.558,0c.887-6.522,1.059-6.694,7.581-7.581a.786.786,0,0,0,0-1.558ZM9.04,58.82a6.329,6.329,0,0,0-4.7-4.7,6.332,6.332,0,0,0,4.7-4.7,6.329,6.329,0,0,0,4.7,4.7A6.328,6.328,0,0,0,9.04,58.82Z" transform="translate(0 -29.457)" fill="#707070"/>
</svg>
