<svg id="icon-teeth-1" xmlns="http://www.w3.org/2000/svg" width="35.629" height="36.262" viewBox="0 0 35.629 36.262">
  <path id="パス_1" data-name="パス 1" d="M24.592,36.261h-.043c-2.5-.051-3.353-.422-4.107-3.2-.582-2.141-1.24-2.834-2.411-2.834H17.6c-1.171,0-1.83.693-2.411,2.834-.753,2.774-1.608,3.144-4.106,3.2-1.839.034-4.637-.566-9.861-19.122l-.111-.4C.154,13.362-.567,9.806.615,6.694,1.876,3.377,3.466,1.343,5.476.477c2.7-1.165,5.6.039,8.153,1.1a11.189,11.189,0,0,0,4.185.59A11.187,11.187,0,0,0,22,1.578C24.554.516,27.449-.688,30.153.477c2.011.866,3.6,2.9,4.861,6.217,1.182,3.112.461,6.669-.494,10.049l-.112.4C29.226,35.55,26.439,36.261,24.592,36.261Zm-6.993-7.6h.432c2.372,0,3.163,1.178,3.928,3.993.609,2.241,1.3,2.009,2.622,2.036h.007c.478,0,3.038.744,8.308-17.977l.112-.4c.881-3.12,1.557-6.378.537-9.063-1.1-2.9-2.414-4.642-4.013-5.331-2.093-.9-4.551.12-6.927,1.109a12.728,12.728,0,0,1-4.762.711h-.055a12.728,12.728,0,0,1-4.761-.711C10.649,2.041,8.191,1.018,6.1,1.921,4.5,2.61,3.186,4.353,2.085,7.252c-1.02,2.685-.345,5.943.537,9.063l.112.4c5.27,18.72,7.83,17.977,8.308,17.977h.007c1.323-.027,2.013.205,2.622-2.036C14.435,29.838,15.226,28.659,17.6,28.659Z" transform="translate(0 0)" fill="#707070"/>
  <path id="パス_2" data-name="パス 2" d="M40.175,19.625a.771.771,0,0,1-.284,1.039h0a.771.771,0,0,1-1.075-.061l-5.239-7.283a.77.77,0,0,1,.284-1.039h0a.77.77,0,0,1,1.075.061Z" transform="translate(-21.869 -7.903)" fill="#707070"/>
  <path id="パス_3" data-name="パス 3" d="M36.724,13.671a.782.782,0,0,1,1.09.131h0a.782.782,0,0,1,.049,1.1l-6.9,6.392a.781.781,0,0,1-1.09-.132h0a.781.781,0,0,1-.048-1.1Z" transform="translate(-19.356 -8.823)" fill="#707070"/>
  <path id="パス_4" data-name="パス 4" d="M60.925,32.762a.771.771,0,0,1-.284,1.039h0a.771.771,0,0,1-1.075-.061l-5.239-7.283a.77.77,0,0,1,.284-1.039h0a.77.77,0,0,1,1.076.061" transform="translate(-35.427 -16.487)" fill="#707070"/>
  <path id="パス_5" data-name="パス 5" d="M51.714,34.428a.781.781,0,0,1-1.09-.132h0a.781.781,0,0,1-.048-1.1l6.9-6.392a.782.782,0,0,1,1.09.131h0a.782.782,0,0,1,.049,1.1" transform="translate(-32.914 -17.407)" fill="#707070"/>
</svg>
