<svg xmlns="http://www.w3.org/2000/svg" width="35.628" height="36.262" viewBox="0 0 35.628 36.262">
  <path id="icon-teeth-2" d="M24.592,36.261h-.043c-2.5-.051-3.353-.422-4.106-3.2-.582-2.141-1.241-2.834-2.411-2.834H17.6c-1.171,0-1.83.693-2.411,2.834-.753,2.774-1.608,3.144-4.106,3.2-1.84.034-4.637-.566-9.861-19.122l-.111-.4C.154,13.363-.567,9.806.615,6.694,1.876,3.377,3.466,1.343,5.476.477c2.7-1.165,5.6.039,8.153,1.1a11.2,11.2,0,0,0,4.185.59A11.2,11.2,0,0,0,22,1.578C24.554.516,27.449-.688,30.152.477c2.011.866,3.6,2.9,4.861,6.217,1.182,3.112.462,6.668-.494,10.048l-.112.4C29.226,35.551,26.439,36.261,24.592,36.261ZM17.6,28.66h.432c2.372,0,3.163,1.178,3.928,3.993.609,2.241,1.3,2.009,2.622,2.036h.007c.478,0,3.038.744,8.308-17.977l.112-.4c.881-3.12,1.557-6.378.537-9.063-1.1-2.9-2.414-4.642-4.013-5.331-2.093-.9-4.55.121-6.927,1.109a12.737,12.737,0,0,1-4.761.711h-.055a12.728,12.728,0,0,1-4.761-.711C10.649,2.041,8.191,1.018,6.1,1.921,4.5,2.61,3.186,4.354,2.085,7.252c-1.02,2.685-.345,5.942.537,9.062l.112.4c5.27,18.72,7.83,17.977,8.308,17.977h.007c1.323-.027,2.013.205,2.622-2.036C14.435,29.838,15.226,28.66,17.6,28.66Z" transform="translate(0 0)" fill="#707070"/>
</svg>
