<svg id="icon-teeth-4" xmlns="http://www.w3.org/2000/svg" width="35.629" height="38.553" viewBox="0 0 35.629 38.553">
  <path id="パス_9" data-name="パス 9" d="M22.058,18.589H32.091a2.535,2.535,0,0,0,2.429-1.847c.955-3.379,1.676-6.936.494-10.048C33.753,3.377,32.163,1.343,30.153.477c-2.7-1.164-5.6.039-8.153,1.1a11.188,11.188,0,0,1-4.185.59,11.187,11.187,0,0,1-4.185-.59C11.076.516,8.181-.687,5.477.477c-2.011.866-3.6,2.9-4.861,6.217-1.182,3.112-.461,6.669.5,10.059a2.532,2.532,0,0,0,2.427,1.837H13.572m1.575,0h5.337M33,16.325a.953.953,0,0,1-.914.692H3.538a.956.956,0,0,1-.916-.7C1.74,13.2,1.065,9.938,2.085,7.253,3.187,4.354,4.5,2.61,6.1,1.921a4.447,4.447,0,0,1,1.78-.348A14.369,14.369,0,0,1,13.026,3.03a12.731,12.731,0,0,0,4.762.711h.055A12.722,12.722,0,0,0,22.6,3.03c2.377-.988,4.835-2.01,6.927-1.109,1.6.689,2.912,2.433,4.013,5.331C34.564,9.938,33.889,13.2,33,16.325Z" transform="translate(0 -0.001)" fill="#707070"/>
  <path id="パス_10" data-name="パス 10" d="M43.766,59.181a.875.875,0,0,1-.945.78H27.468a.875.875,0,0,1-.945-.78h0a.875.875,0,0,1,.945-.78H42.821a.875.875,0,0,1,.945.78Z" transform="translate(-17.33 -38.16)" fill="#707070"/>
  <path id="パス_11" data-name="パス 11" d="M44.994,71.264a.875.875,0,0,1-.945.78H31.468a.875.875,0,0,1-.945-.78h0a.875.875,0,0,1,.945-.78h12.58a.875.875,0,0,1,.945.78Z" transform="translate(-19.944 -46.055)" fill="#707070"/>
  <path id="パス_12" data-name="パス 12" d="M46.221,83.348a.875.875,0,0,1-.945.78H35.468a.875.875,0,0,1-.945-.78h0a.875.875,0,0,1,.945-.78h9.808a.875.875,0,0,1,.945.78Z" transform="translate(-22.558 -53.951)" fill="#707070"/>
  <path id="パス_13" data-name="パス 13" d="M47.448,95.431a.875.875,0,0,1-.945.78H39.468a.875.875,0,0,1-.945-.78h0a.875.875,0,0,1,.945-.78H46.5a.875.875,0,0,1,.945.78Z" transform="translate(-25.171 -61.846)" fill="#707070"/>
  <path id="パス_14" data-name="パス 14" d="M48.675,107.514a.875.875,0,0,1-.945.78H43.468a.875.875,0,0,1-.945-.78h0a.875.875,0,0,1,.945-.78H47.73a.875.875,0,0,1,.945.78Z" transform="translate(-27.785 -69.741)" fill="#707070"/>
</svg>
