<?xml version="1.0" encoding="utf-8"?>
<!-- Generator: Adobe Illustrator 15.1.0, SVG Export Plug-In . SVG Version: 6.00 Build 0)  -->
<!DOCTYPE svg PUBLIC "-//W3C//DTD SVG 1.1//EN" "http://www.w3.org/Graphics/SVG/1.1/DTD/svg11.dtd">
<svg version="1.1" id="レイヤー_1" xmlns="http://www.w3.org/2000/svg" xmlns:xlink="http://www.w3.org/1999/xlink" x="0px"
	 y="0px" width="200px" height="200px" viewBox="0 0 200 200" enable-background="new 0 0 200 200" xml:space="preserve">
<path fill="#3FB8B1" d="M200,180c0,11.046-8.954,20-20,20H20c-11.046,0-20-8.954-20-20V20C0,8.954,8.954,0,20,0h160
	c11.046,0,20,8.954,20,20V180z"/>
<path fill="#FFFFFF" stroke="#FFFFFF" stroke-miterlimit="10" d="M150.623,65.502c-3.637-9.57-9.224-15.438-15.024-17.938
	c-7.802-3.361-16.153,0.113-23.522,3.178c-4.396,1.828-8.552,2.555-12.076,2.703c-3.524-0.148-7.68-0.875-12.076-2.703
	c-7.368-3.064-15.721-6.538-23.522-3.178c-5.801,2.5-11.389,8.367-15.025,17.938c-3.411,8.979-0.331,19.24,2.425,28.992l0.321,1.143
	c15.072,53.54,23.143,58.27,28.449,58.172c7.211-0.147,9.675-4.217,11.849-12.22c1.678-6.176,3.579-8.176,6.957-8.176h1.246
	c3.377,0,5.279,2,6.957,8.176c2.173,8.003,4.637,12.072,11.848,12.22c0.042,0.002,0.083,0.002,0.125,0.002
	c5.33,0,13.37-5.051,28.324-58.174l0.322-1.143C150.955,84.742,154.034,74.48,150.623,65.502z"/>
</svg>
